<svg width="183" height="27" viewBox="0 0 183 27" fill="none" xmlns="http://www.w3.org/2000/svg">
<path d="M5.6 21V5.208H0.08V1.8H14.72V5.208H9.2V21H5.6ZM20.4127 12.168H28.7647L27.6127 13.536C27.6127 12.032 27.3487 10.896 26.8207 10.128C26.2927 9.344 25.5087 8.952 24.4687 8.952C23.3647 8.952 22.5167 9.36 21.9247 10.176C21.3487 10.976 21.0607 12.112 21.0607 13.584C21.0607 15.168 21.3487 16.368 21.9247 17.184C22.5167 18 23.3967 18.408 24.5647 18.408C25.2527 18.408 25.8607 18.248 26.3887 17.928C26.9327 17.592 27.3887 17.104 27.7567 16.464H31.0447C30.7567 17.504 30.3007 18.4 29.6767 19.152C29.0687 19.888 28.3247 20.456 27.4447 20.856C26.5647 21.24 25.5807 21.432 24.4927 21.432C23.0847 21.432 21.8767 21.12 20.8687 20.496C19.8607 19.872 19.0847 18.976 18.5407 17.808C17.9967 16.64 17.7247 15.232 17.7247 13.584C17.7247 12.016 18.0047 10.664 18.5647 9.528C19.1247 8.376 19.9087 7.488 20.9167 6.864C21.9247 6.24 23.1087 5.928 24.4687 5.928C25.7807 5.928 26.9007 6.232 27.8287 6.84C28.7567 7.432 29.4687 8.296 29.9647 9.432C30.4607 10.552 30.7087 11.912 30.7087 13.512C30.7087 13.752 30.7007 13.976 30.6847 14.184C30.6687 14.392 30.6527 14.6 30.6367 14.808H20.4127V12.168ZM41.3934 21.432C40.0014 21.432 38.7934 21.12 37.7694 20.496C36.7454 19.872 35.9534 18.984 35.3934 17.832C34.8334 16.68 34.5534 15.32 34.5534 13.752C34.5534 12.152 34.8414 10.768 35.4174 9.6C35.9934 8.432 36.8014 7.528 37.8414 6.888C38.8974 6.248 40.1374 5.928 41.5614 5.928C42.8254 5.928 43.9294 6.192 44.8734 6.72C45.8174 7.232 46.5614 7.96 47.1054 8.904C47.6494 9.848 47.9454 10.968 47.9934 12.264H44.8734C44.6654 11.24 44.2654 10.448 43.6734 9.888C43.0974 9.328 42.3774 9.048 41.5134 9.048C40.3774 9.048 39.4894 9.464 38.8494 10.296C38.2254 11.112 37.9134 12.264 37.9134 13.752C37.9134 15.192 38.2174 16.312 38.8254 17.112C39.4494 17.912 40.3054 18.312 41.3934 18.312C42.1774 18.312 42.8414 18.072 43.3854 17.592C43.9294 17.112 44.3134 16.44 44.5374 15.576H47.6814C47.5854 16.76 47.2574 17.792 46.6974 18.672C46.1534 19.552 45.4254 20.232 44.5134 20.712C43.6014 21.192 42.5614 21.432 41.3934 21.432ZM51.7421 21V0.647999H55.1981V7.632H56.0381C56.3741 7.088 56.8301 6.672 57.4061 6.384C57.9821 6.08 58.6301 5.928 59.3501 5.928C60.3421 5.928 61.1901 6.16 61.8941 6.624C62.6141 7.072 63.1661 7.728 63.5501 8.592C63.9341 9.44 64.1261 10.456 64.1261 11.64V21H60.6701V12.504C60.6701 11.416 60.4381 10.592 59.9741 10.032C59.5101 9.456 58.8301 9.168 57.9341 9.168C57.0381 9.168 56.3581 9.456 55.8941 10.032C55.4301 10.592 55.1981 11.416 55.1981 12.504V21H51.7421ZM68.7148 21V1.8H75.7708C77.0508 1.8 78.1708 2.04 79.1308 2.52C80.0908 3 80.8268 3.68 81.3388 4.56C81.8668 5.44 82.1308 6.48 82.1308 7.68C82.1308 8.848 81.8668 9.864 81.3388 10.728C80.8268 11.592 80.0908 12.264 79.1308 12.744C78.1708 13.208 77.0508 13.44 75.7708 13.44H72.3148V21H68.7148ZM72.3148 10.2H75.8188C76.6668 10.2 77.3308 9.984 77.8108 9.552C78.2908 9.104 78.5308 8.488 78.5308 7.704C78.5308 6.92 78.2908 6.304 77.8108 5.856C77.3308 5.408 76.6668 5.184 75.8188 5.184H72.3148V10.2ZM85.0394 6.36H91.1354V7.608H91.9754C92.2474 7.08 92.6394 6.672 93.1514 6.384C93.6794 6.096 94.2794 5.952 94.9514 5.952C96.1194 5.952 97.0074 6.384 97.6154 7.248C98.2394 8.096 98.5514 9.336 98.5514 10.968V13.224H95.0234V11.424C95.0234 9.984 94.4714 9.264 93.3674 9.264C92.6634 9.264 92.1434 9.584 91.8074 10.224C91.4714 10.848 91.3034 11.8 91.3034 13.08V17.88H95.5754V21H85.3754V17.88H87.9434V9.48H85.0394V6.36ZM108.228 21.432C106.836 21.432 105.62 21.12 104.58 20.496C103.556 19.856 102.756 18.96 102.18 17.808C101.62 16.64 101.34 15.264 101.34 13.68C101.34 12.096 101.62 10.728 102.18 9.576C102.756 8.408 103.556 7.512 104.58 6.888C105.62 6.248 106.836 5.928 108.228 5.928C109.636 5.928 110.852 6.248 111.876 6.888C112.9 7.512 113.692 8.408 114.252 9.576C114.828 10.728 115.116 12.096 115.116 13.68C115.116 15.264 114.828 16.64 114.252 17.808C113.692 18.96 112.9 19.856 111.876 20.496C110.852 21.12 109.636 21.432 108.228 21.432ZM108.228 18.312C109.348 18.312 110.212 17.904 110.82 17.088C111.428 16.272 111.732 15.136 111.732 13.68C111.732 12.224 111.428 11.088 110.82 10.272C110.212 9.456 109.348 9.048 108.228 9.048C107.124 9.048 106.26 9.456 105.636 10.272C105.028 11.088 104.724 12.224 104.724 13.68C104.724 15.136 105.028 16.272 105.636 17.088C106.26 17.904 107.124 18.312 108.228 18.312ZM119.585 6.36H129.089V21.24C129.089 22.824 128.625 24.048 127.697 24.912C126.785 25.792 125.473 26.232 123.761 26.232C122.161 26.232 120.897 25.848 119.969 25.08C119.057 24.328 118.553 23.256 118.457 21.864H121.769C121.961 22.328 122.217 22.672 122.537 22.896C122.873 23.136 123.273 23.256 123.737 23.256C124.345 23.256 124.809 23.072 125.129 22.704C125.465 22.336 125.633 21.824 125.633 21.168V9.48H119.585V6.36ZM127.361 4.488C126.625 4.488 126.057 4.296 125.657 3.912C125.257 3.528 125.057 2.992 125.057 2.304C125.057 1.6 125.257 1.064 125.657 0.696C126.057 0.311999 126.625 0.119998 127.361 0.119998C128.097 0.119998 128.665 0.311999 129.065 0.696C129.465 1.08 129.665 1.616 129.665 2.304C129.665 2.992 129.465 3.528 129.065 3.912C128.665 4.296 128.097 4.488 127.361 4.488ZM138.046 12.168H146.398L145.246 13.536C145.246 12.032 144.982 10.896 144.454 10.128C143.926 9.344 143.142 8.952 142.102 8.952C140.998 8.952 140.15 9.36 139.558 10.176C138.982 10.976 138.694 12.112 138.694 13.584C138.694 15.168 138.982 16.368 139.558 17.184C140.15 18 141.03 18.408 142.198 18.408C142.886 18.408 143.494 18.248 144.022 17.928C144.566 17.592 145.022 17.104 145.39 16.464H148.678C148.39 17.504 147.934 18.4 147.31 19.152C146.702 19.888 145.958 20.456 145.078 20.856C144.198 21.24 143.214 21.432 142.126 21.432C140.718 21.432 139.51 21.12 138.502 20.496C137.494 19.872 136.718 18.976 136.174 17.808C135.63 16.64 135.358 15.232 135.358 13.584C135.358 12.016 135.638 10.664 136.198 9.528C136.758 8.376 137.542 7.488 138.55 6.864C139.558 6.24 140.742 5.928 142.102 5.928C143.414 5.928 144.534 6.232 145.462 6.84C146.39 7.432 147.102 8.296 147.598 9.432C148.094 10.552 148.342 11.912 148.342 13.512C148.342 13.752 148.334 13.976 148.318 14.184C148.302 14.392 148.286 14.6 148.27 14.808H138.046V12.168ZM159.026 21.432C157.634 21.432 156.426 21.12 155.402 20.496C154.378 19.872 153.586 18.984 153.026 17.832C152.466 16.68 152.186 15.32 152.186 13.752C152.186 12.152 152.474 10.768 153.05 9.6C153.626 8.432 154.434 7.528 155.474 6.888C156.53 6.248 157.77 5.928 159.194 5.928C160.458 5.928 161.562 6.192 162.506 6.72C163.45 7.232 164.194 7.96 164.738 8.904C165.282 9.848 165.578 10.968 165.626 12.264H162.506C162.298 11.24 161.898 10.448 161.306 9.888C160.73 9.328 160.01 9.048 159.146 9.048C158.01 9.048 157.122 9.464 156.482 10.296C155.858 11.112 155.546 12.264 155.546 13.752C155.546 15.192 155.85 16.312 156.458 17.112C157.082 17.912 157.938 18.312 159.026 18.312C159.81 18.312 160.474 18.072 161.018 17.592C161.562 17.112 161.946 16.44 162.17 15.576H165.314C165.218 16.76 164.89 17.792 164.33 18.672C163.786 19.552 163.058 20.232 162.146 20.712C161.234 21.192 160.194 21.432 159.026 21.432ZM175.159 2.568V6.36H181.615V9.48H175.159V16.008C175.159 16.76 175.303 17.336 175.591 17.736C175.879 18.12 176.303 18.312 176.863 18.312C177.439 18.312 177.895 18.088 178.231 17.64C178.583 17.192 178.855 16.48 179.047 15.504H182.095C182.015 17.424 181.511 18.896 180.583 19.92C179.671 20.928 178.399 21.432 176.767 21.432C175.135 21.432 173.879 20.968 172.999 20.04C172.135 19.096 171.703 17.768 171.703 16.056V9.48H168.799V6.36H171.703V2.568H175.159Z" fill="white"/>
</svg>
